<?xml version="1.0" encoding="UTF-8"?>
<!DOCTYPE svg PUBLIC "-//W3C//DTD SVG 1.1//EN" "http://www.w3.org/Graphics/SVG/1.1/DTD/svg11.dtd">
<svg xmlns="http://www.w3.org/2000/svg" version="1.1" width="720px" height="720px" style="shape-rendering:geometricPrecision; text-rendering:geometricPrecision; image-rendering:optimizeQuality; fill-rule:evenodd; clip-rule:evenodd" xmlns:xlink="http://www.w3.org/1999/xlink">
<g><path style="opacity:1" fill="#e2e1dc" d="M -0.5,-0.5 C 239.5,-0.5 479.5,-0.5 719.5,-0.5C 719.5,239.5 719.5,479.5 719.5,719.5C 479.5,719.5 239.5,719.5 -0.5,719.5C -0.5,479.5 -0.5,239.5 -0.5,-0.5 Z"/></g>
<g><path style="opacity:1" fill="#b8798c" d="M 304.5,374.5 C 304.5,388.5 304.5,402.5 304.5,416.5C 302.833,416.5 301.167,416.5 299.5,416.5C 264.256,411.748 236.089,395.081 215,366.5C 188.176,328.019 175.01,285.186 175.5,238C 174.534,187.229 189.701,142.062 221,102.5C 242.143,78.0336 268.643,62.867 300.5,57C 330.012,54.081 356.178,61.9143 379,80.5C 380.759,74.626 382.592,68.7927 384.5,63C 392.188,62.1685 399.855,62.3352 407.5,63.5C 416.155,103.096 424.488,142.763 432.5,182.5C 432.291,183.994 431.624,185.161 430.5,186C 421.906,189.135 413.239,191.968 404.5,194.5C 397.935,173.037 389.435,152.37 379,132.5C 366.864,113.022 349.697,100.522 327.5,95C 307.613,92.3865 289.947,97.3865 274.5,110C 257.425,125.967 245.259,145.134 238,167.5C 229.108,196.196 226.108,225.529 229,255.5C 231.577,290.619 243.577,321.952 265,349.5C 275.973,361.307 289.139,369.64 304.5,374.5 Z"/></g>
<g><path style="opacity:1" fill="#b8798c" d="M 415.5,307.5 C 418.187,307.336 420.854,307.503 423.5,308C 429.353,313.354 435.353,318.52 441.5,323.5C 424.461,359.372 398.628,387.039 364,406.5C 363.333,392.167 363.333,377.833 364,363.5C 374.413,356.113 384.079,347.779 393,338.5C 401.023,328.415 408.523,318.082 415.5,307.5 Z"/></g>
<g><path style="opacity:1" fill="#d9cbcb" d="M 279.5,317.5 C 320.335,316.169 361.335,316.169 402.5,317.5C 402.376,318.107 402.043,318.44 401.5,318.5C 361.003,317.501 320.337,317.168 279.5,317.5 Z"/></g>
<g><path style="opacity:1" fill="#b8798c" d="M 279.5,317.5 C 320.337,317.168 361.003,317.501 401.5,318.5C 391.882,333.192 379.882,345.692 365.5,356C 363.527,356.495 361.527,356.662 359.5,356.5C 359.5,402.167 359.5,447.833 359.5,493.5C 381.566,494.082 403.566,493.249 425.5,491C 438,488.825 447.5,482.325 454,471.5C 465.427,449.391 468.76,426.058 464,401.5C 459.822,379.753 447.322,365.42 426.5,358.5C 432.927,349.566 438.76,340.232 444,330.5C 445.908,327.794 446.741,324.794 446.5,321.5C 480.213,330.042 503.046,350.709 515,383.5C 524.995,418.864 521.661,452.864 505,485.5C 491.266,510.896 470.099,525.729 441.5,530C 436.201,530.93 430.867,531.597 425.5,532C 403.503,532.5 381.503,532.667 359.5,532.5C 359.032,568.874 359.532,605.207 361,641.5C 361.883,644.102 363.383,646.269 365.5,648C 373.105,649.19 380.771,649.857 388.5,650C 390.333,651.833 392.167,653.667 394,655.5C 394.667,662.5 394.667,669.5 394,676.5C 392.167,678.333 390.333,680.167 388.5,682C 352.167,682.667 315.833,682.667 279.5,682C 277.667,680.167 275.833,678.333 274,676.5C 273.333,669.5 273.333,662.5 274,655.5C 275.833,653.667 277.667,651.833 279.5,650C 287.343,650.09 295.009,649.09 302.5,647C 306.049,644.036 307.882,640.203 308,635.5C 308.667,544.5 308.667,453.5 308,362.5C 307.973,358.614 306.473,355.448 303.5,353C 295.663,351.008 287.663,350.008 279.5,350C 277.667,348.167 275.833,346.333 274,344.5C 273.333,337.5 273.333,330.5 274,323.5C 276.04,321.63 277.873,319.63 279.5,317.5 Z"/></g>
<g><path style="opacity:1" fill="#dbcccb" d="M 304.5,374.5 C 305.496,388.657 305.829,402.99 305.5,417.5C 303.265,417.795 301.265,417.461 299.5,416.5C 301.167,416.5 302.833,416.5 304.5,416.5C 304.5,402.5 304.5,388.5 304.5,374.5 Z"/></g>
</svg>
