<?xml version="1.0" encoding="utf-8"?>
<!-- Generator: Adobe Illustrator 22.0.1, SVG Export Plug-In . SVG Version: 6.00 Build 0)  -->
<svg version="1.1" id="Layer_1" xmlns="http://www.w3.org/2000/svg" xmlns:xlink="http://www.w3.org/1999/xlink" x="0px" y="0px"
	 viewBox="0 0 640 480" enable-background="new 0 0 640 480" xml:space="preserve">
<g>
	<polyline fill="#E87A3C" points="394.9,227 332.3,227 332.3,159.1 308.4,159.1 308.4,227 245.8,227 245.8,250.8 308.4,250.8 
		308.4,318.6 332.3,318.6 332.3,250.8 394.9,250.8 	"/>
	<polyline fill="#C83543" points="269.7,338 213.8,338 213.8,276.9 192.9,276.9 192.9,338 137,338 137,355.9 192.9,355.9 
		192.9,417.1 213.8,417.1 213.8,355.9 269.7,355.9 	"/>
	<polyline fill="#608B9E" points="503.8,120.4 447.8,120.4 447.8,59.2 427,59.2 427,120.4 371.1,120.4 371.1,139 427,139 427,199.4 
		447.8,199.4 447.8,139 503.8,139 	"/>
	<polyline fill="#626C94" points="367.3,405.1 330.1,405.1 330.1,362.6 311.4,362.6 311.4,405.1 273.4,405.1 273.4,421.5 
		311.4,421.5 311.4,464 330.1,464 330.1,421.5 367.3,421.5 	"/>
	<polyline fill="#EB943C" points="269.7,120.4 213,120.4 213,59.2 192.9,59.2 192.9,120.4 137,120.4 137,138.2 192.9,138.2 
		192.9,199.4 213,199.4 213,138.2 269.7,138.2 	"/>
	<polyline fill="#626C94" points="547,230.7 509,230.7 509,188.2 491.1,188.2 491.1,230.7 453.1,230.7 453.1,247.1 491.1,247.1 
		491.1,289.6 509,289.6 509,247.1 547,247.1 	"/>
	<polyline fill="#344E82" points="503.8,338 447.8,338 447.8,276.9 427,276.9 427,338 371.1,338 371.1,355.9 427,355.9 427,417.1 
		447.8,417.1 447.8,355.9 503.8,355.9 	"/>
	<polyline fill="#759CA8" points="365.1,57.7 327.8,57.7 327.8,16 313.7,16 313.7,57.7 276.4,57.7 276.4,70.4 313.7,70.4 
		313.7,112.2 327.8,112.2 327.8,70.4 365.1,70.4 	"/>
	<polyline fill="#759CA8" points="181.7,232.2 144.4,232.2 144.4,191.9 131,191.9 131,232.2 93,232.2 93,245.6 131,245.6 131,286.6 
		144.4,286.6 144.4,245.6 181.7,244.8 	"/>
</g>
<rect x="72.3" y="0.6" fill="none" width="495.5" height="478.8"/>
</svg>
