<svg xmlns="http://www.w3.org/2000/svg" width="720" height="720" viewBox="0 0 720 720">
  <defs>
    <style>
      .cls-1 {
        fill: #e4e2dd;
      }

      .cls-2 {
        fill: #b8798c;
        fill-rule: evenodd;
      }
    </style>
  </defs>
  <rect class="cls-1" width="720" height="720" rx="32" ry="32"/>
  <path id="C.P." class="cls-2" d="M252.9,206.365Q236.4,190.843,220.381,183.84a85.881,85.881,0,0,0-34.742-7q-35.019,0-65.314,24.688T72.8,268.085q-17.232,41.87-17.232,93.535,0,70.247,31.128,121.15,37.612,61.341,97.832,61.338a102.525,102.525,0,0,0,50.028-12.471q22.791-12.466,43.914-38.686,13.34-16.286,24.828-39.705l-14.823-14q-18.9,34.992-44.654,54.4t-50.4,19.411q-26.125,0-48.73-19.359t-35.854-55.274q-13.249-35.916-13.248-81.767,0-44.579,13.063-80.24t34.093-54.129q21.027-18.468,46.044-18.468a63.663,63.663,0,0,1,39,13.235q17.692,13.236,29.554,35.886,7.226,14,21.123,54.976L295.7,301.3,272.206,182.949h-13.34Zm76.646,281.622q-6.767,9.294-6.763,22.525t6.856,22.525q6.852,9.288,16.305,9.29,9.631,0,16.491-9.29t6.855-22.525q0-13.23-6.763-22.525T345.943,478.7Q336.307,478.7,329.545,487.987Zm63.861-283.658h6.115q13.341,0,17.88,2.692a14.942,14.942,0,0,1,6.485,8.463q1.945,5.773,1.946,22.695V480.988q0,17.311-2.131,23.543a16.759,16.759,0,0,1-6.763,9.163q-4.634,2.928-17.417,2.927h-6.115V538H493.462V516.621h-8.894q-11.859,0-15.749-2.927T462.7,503.386q-1.668-5.346-1.667-25.706V386.563h47.306q40.443,0,59.275-11.326t32-38.305q10.942-22.394,10.946-53.194,0-36.138-14.371-59.557t-36.441-33.087q-17.619-8.144-64.165-8.145H393.406v21.38Zm100.111,6.363q32.292,0,43.43,4.326,15.959,6.366,25.24,24.307t9.281,44.667q0,24.433-7.982,42.632T543.351,352.2q-12.16,7.385-42.411,7.381h-39.9V210.692h32.48Zm131.992,277.3q-6.765,9.294-6.763,22.525t6.856,22.525q6.854,9.288,16.305,9.29,9.633,0,16.491-9.29t6.856-22.525q0-13.23-6.763-22.525T641.907,478.7Q632.271,478.7,625.509,487.987Z"/>
</svg>
